<?xml version="1.0" encoding="UTF-8"?>
<svg xmlns="http://www.w3.org/2000/svg" version="1.1" xmlns:xlink="http://www.w3.org/1999/xlink" viewBox="0 0 32 32">
  <!-- Generator: Adobe Illustrator 29.4.0, SVG Export Plug-In . SVG Version: 2.1.0 Build 152)  -->
  <defs>
    <style>
      .st0 {
        fill: red;
      }

      .st0, .st1 {
        display: none;
      }

      .st2 {
        stroke-linecap: round;
        stroke-width: .7px;
      }

      .st2, .st3, .st4, .st5, .st6, .st7, .st8 {
        fill: none;
      }

      .st2, .st3, .st4, .st6, .st7, .st8, .st9 {
        stroke: #052942;
      }

      .st2, .st4, .st6, .st8 {
        stroke-linejoin: round;
      }

      .st3, .st4 {
        stroke-width: 1.1px;
      }

      .st3, .st7, .st10, .st9 {
        stroke-miterlimit: 10;
      }

      .st11 {
        fill: #fff;
      }

      .st6 {
        stroke-width: .3px;
      }

      .st7 {
        stroke-width: 2.8px;
      }

      .st8 {
        stroke-width: .5px;
      }

      .st10 {
        stroke: #629daf;
        stroke-width: .1px;
      }

      .st10, .st12 {
        fill: #052942;
      }

      .st9 {
        fill: #60aad3;
        stroke-width: .9px;
      }

      .st13 {
        fill: #63acd7;
      }

      .st14 {
        clip-path: url(#clippath);
      }
    </style>
    <clipPath id="clippath">
      <path class="st5" d="M26,20.8c.3,5.4-4.7,9.8-9.8,9.7-5.8,0-10.3-4.4-10-10,.3-5,5.4-11.3,10-17.9,7.8,11.9,9.5,13.6,9.8,18.2Z"/>
    </clipPath>
  </defs>
  <g id="Layer_1">
    <g id="Layer_2" class="st1">
      <rect class="st11" x="-1.9" y="-2.2" width="36.5" height="36.9"/>
      <rect class="st0" x="-1.9" y="-2.2" width="36.5" height="36.9"/>
    </g>
    <g id="INSIDE_DROPLET">
      <g class="st14">
        <g>
          <polygon class="st9" points="9.9 10.9 17 14.9 17 16.9 21.8 16.2 21.9 15.2 11 9.1 9.9 10.9"/>
          <path class="st12" d="M15,21.1l-8.4-4.3c-.1-.2,1.7-3.7,2.1-3.8s.3,0,.4,0l5.5,3.2c-.1,1.7-.2,3.4.4,5h0Z"/>
          <path class="st11" d="M12.9,20.8c.1.2,0,2.2.2,2.7l.4-1.9.4-.3c-.2,2.7-.8,4.9,1,7.2,1.7,2.3,2.2,1.9,3.8,1.1s1.2-1.3,1.6-1.2c.8.4,1.2,3.4.7,3.8l-1.5.4c0-2-2.5-1.5-4-2.4-3.6-2.1-3.5-6.2-3.2-9.8.1,0,.7.3.7.3h-.1Z"/>
          <path class="st11" d="M19.5,16.9c.1,1.4-.3,5.9-2.6,5.2s-1.6-4-1.5-5.6c1.3,1.3,2.5.5,4.2.3Z"/>
          <path class="st12" d="M16.5,16.3l-7.4-3.9.5-1.1h.2c.8.7,6.5,3.3,6.7,3.8s0,.9,0,1.3h0Z"/>
          <path class="st13" d="M11.9,20.3v6.7c-.1,0,.5,1.9,1.7,3,1.2,1,2.7,1.4,2.7,1.4l1.3.2s.9.1.9.7v1.7l1.4-.8v-2.1c.1,0,.1-.3,0-.9-.2-.4-.4-.5-1.1-.3-1.6.7-2.2.3-2.8-.2-.8-.7-2.1-2-2.1-3.2v-4.9l-1.9-1.1-.2-.2Z"/>
          <path class="st13" d="M15.1,15.8v3.6s.3,1.9,1,2.3,1.7.4,1.7.4c0,0,1.1-.4,1.4-1.4s.4-1.6.4-2.3v-2.3l-2.2.3-2.5-.8h.1Z"/>
          <path class="st10" d="M15.4,25.1c0-.2.2-.5.5-1.7.3,1.1.5,1.5.5,1.7,0,.7-.3.8-.5.8s-.5-.1-.5-.8Z"/>
          <path class="st12" d="M19.4,25.7c0-.2.1-.4.4-1.4.3.9.4,1.2.4,1.4,0,.5-.2.5-.4.5s-.4-.1-.4-.5Z"/>
          <path class="st10" d="M17,27.3c0-.3.2-.7.8-2.1.4,1.4.7,1.9.7,2.1,0,.9-.3.9-.7.9s-.8-.2-.8-.9Z"/>
          <path class="st13" d="M18.5,29.7c.3,0,2.1-1.4,2.6-.3.3.7.3.2.3.2,0,0-.3-1-.8-1.3s-.7-.2-1.1,0-1.2,1.4-1.2,1.4h.1Z"/>
          <polyline class="st4" points="8.5 12.3 16.9 16.9 21.6 16.2 21.6 15.2"/>
          <line class="st8" x1="9.9" y1="11" x2="17.2" y2="15"/>
          <path class="st6" d="M22,15.1"/>
          <path class="st6" d="M14.7,11"/>
          <path class="st6" d="M14.7,11"/>
          <path class="st6" d="M7.3,6.8"/>
          <path class="st6" d="M16.5,16.1"/>
          <path class="st6" d="M9.2,12"/>
          <path class="st6" d="M16.4,15.6"/>
          <path class="st6" d="M9.1,11.4"/>
          <path class="st6" d="M22,15.1"/>
          <path class="st6" d="M14.7,11"/>
          <path class="st6" d="M14.7,11"/>
          <path class="st6" d="M7.2,6.7"/>
          <line class="st3" x1="17" y1="14.9" x2="17" y2="17"/>
          <path class="st3" d="M15,15.9c-.2,4.2.3,6.1,1.9,6.7.5.2,1.1,0,1.2,0,1.2-.3,2.1-2.8,1.9-6.1"/>
          <path class="st3" d="M14.2,21.1v4.5c0,1.4,0,.7.2,1.1.7,1.9,1.7,2.6,2.5,2.8,1.3.2,2-.1,2.3-.7,1-1.4,2.5-1.2,2.4,3.6"/>
          <path class="st3" d="M11.9,19.8v5.5c0,.5,0,2.5,2.3,4.6,1,.9,2.1,1.3,2.7,1.4s.5.1.8.1c1.1,0,1.4.1,1.4.9v1.5"/>
          <line class="st3" x1="6.2" y1="16.9" x2="16" y2="22"/>
          <path class="st2" d="M22.5,29.7c1.3-1.1,1.9-1.4,2.7-3.1.9-1.5,1-3.1,1-3.7"/>
        </g>
      </g>
    </g>
  </g>
  <g id="Layer_3">
    <path class="st7" d="M26,20.8c.3,5.4-4.7,9.8-9.8,9.7-5.8,0-10.3-4.4-10-10,.3-5,5.4-11.3,10-17.9,7.8,11.9,9.5,13.6,9.8,18.2Z"/>
  </g>
</svg>