<?xml version="1.0" encoding="UTF-8"?>
<svg id="Layer_1" xmlns="http://www.w3.org/2000/svg" version="1.1" xmlns:xlink="http://www.w3.org/1999/xlink" viewBox="0 0 32 32">
  <!-- Generator: Adobe Illustrator 29.4.0, SVG Export Plug-In . SVG Version: 2.1.0 Build 152)  -->
  <defs>
    <style>
      .st0 {
        fill: #fff;
      }

      .st1, .st2, .st3, .st4, .st5, .st6, .st7 {
        fill: none;
      }

      .st1, .st3, .st4, .st5, .st8, .st6, .st7 {
        stroke: #052942;
      }

      .st1, .st4, .st5, .st6 {
        stroke-linejoin: round;
      }

      .st9 {
        stroke: #629daf;
        stroke-width: .1px;
      }

      .st9, .st3, .st8, .st7 {
        stroke-miterlimit: 10;
      }

      .st9, .st10 {
        fill: #63acd7;
      }

      .st4 {
        stroke-width: .5px;
      }

      .st5 {
        stroke-width: .3px;
      }

      .st8 {
        fill: #60aad3;
        stroke-width: .8px;
      }

      .st11 {
        fill: #052942;
      }

      .st6 {
        stroke-linecap: round;
        stroke-width: .6px;
      }

      .st12 {
        clip-path: url(#clippath);
      }

      .st7 {
        stroke-width: 1.5px;
      }
    </style>
    <clipPath id="clippath">
      <path class="st2" d="M26.7,20.9c.3,5.8-4.9,10.4-10.4,10.3s-10.9-4.6-10.6-10.6c.3-5.2,5.8-12,10.6-18.9,8.2,12.6,10,14.3,10.4,19.2Z"/>
    </clipPath>
  </defs>
  <g id="INSIDE_DROPLET">
    <g class="st12">
      <polygon class="st8" points="9.9 10.9 16.4 14.6 16.4 16.4 20.8 15.8 20.9 14.9 10.9 9.3 9.9 10.9"/>
      <path class="st11" d="M14.6,20.3l-7.7-3.9c-.1-.2,1.6-3.4,1.9-3.5s.3,0,.4,0l5,2.9c-.1,1.6-.2,3.1.4,4.6Z"/>
      <path class="st0" d="M12.7,20c.1.2,0,2,.2,2.5l.4-1.7.4-.3c-.2,2.5-.7,4.5.9,6.6s2,1.7,3.5,1,1.1-1.2,1.5-1.1c.7.4,1.1,3.1.6,3.5l-1.4.4c0-1.8-2.3-1.4-3.7-2.2-3.3-1.9-3.2-5.7-2.9-9,.1,0,.6.3.6.3Z"/>
      <path class="st0" d="M18.7,16.4c.1,1.3-.3,5.4-2.4,4.8s-1.5-3.7-1.4-5.1c1.2,1.2,2.3.5,3.8.3Z"/>
      <rect class="st0" x="-3.4" y="39.4" width="42.3" height=".5"/>
      <path class="st11" d="M16,15.9l-6.8-3.6.5-1h.2c.7.6,5.9,3,6.1,3.5s0,.8,0,1.2Z"/>
      <path class="st10" d="M12.6,19.6v6.1c-.1,0,.5,1.7,1.6,2.7,1.1.9,2.5,1.3,2.5,1.3l1.2.2s.8.1.8.6,0,1.6,0,1.6l1.3-.7v-1.9c.1,0,.1-.3,0-.8-.2-.4-.4-.5-1-.3-1.5.6-2,.3-2.6-.2-.7-.6-1.9-1.8-1.9-2.9,0-1.1,0-4.5,0-4.5l-1.7-1Z"/>
      <path class="st10" d="M14.7,15.4v3.3s.3,1.7.9,2.1,1.6.4,1.6.4c0,0,1-.4,1.3-1.3s.4-1.5.4-2.1v-2.1l-2,.3-2.3-.7Z"/>
      <path class="st9" d="M15,23.9c0-.2.2-.5.5-1.6.3,1,.5,1.4.5,1.6,0,.6-.3.7-.5.7s-.5-.1-.5-.7Z"/>
      <path class="st9" d="M18.6,24.5c0-.2.1-.4.4-1.3.3.8.4,1.1.4,1.3,0,.5-.2.5-.4.5s-.4-.1-.4-.5Z"/>
      <path class="st9" d="M16.4,25.9c0-.3.2-.6.7-1.9.4,1.3.6,1.7.6,1.9,0,.8-.3.8-.6.8s-.7-.2-.7-.8Z"/>
      <path class="st10" d="M17.8,28.1c.3,0,1.9-1.3,2.4-.3.3.6.3.2.3.2,0,0-.3-.9-.7-1.2s-.6-.2-1,0-1.1,1.3-1.1,1.3Z"/>
      <polyline class="st1" points="8.7 12.2 16.3 16.4 20.6 15.8 20.6 14.9"/>
      <line class="st4" x1="9.9" y1="11" x2="16.6" y2="14.7"/>
      <path class="st5" d="M21,14.8"/>
      <path class="st5" d="M14.3,11"/>
      <path class="st5" d="M14.3,11"/>
      <path class="st5" d="M7.6,7.2"/>
      <path class="st5" d="M16,15.7"/>
      <path class="st5" d="M9.3,11.9"/>
      <path class="st5" d="M15.9,15.2"/>
      <path class="st5" d="M9.2,11.4"/>
      <path class="st5" d="M21,14.8"/>
      <path class="st5" d="M14.3,11"/>
      <path class="st5" d="M14.3,11"/>
      <path class="st5" d="M7.5,7.1"/>
      <line class="st3" x1="16.4" y1="14.6" x2="16.4" y2="16.5"/>
      <path class="st3" d="M14.6,15.5c-.2,3.8.3,5.6,1.7,6.1.5.2,1,0,1.1,0,1.1-.3,1.9-2.6,1.7-5.6"/>
      <path class="st3" d="M13.9,20.3c0,1.2,0,2.8,0,4.1s0,.6.2,1c.6,1.7,1.6,2.4,2.3,2.6,1.2.2,1.8-.1,2.1-.6.9-1.3,2.3-1.1,2.2,3.3"/>
      <path class="st3" d="M11.8,19.1v5c0,.5,0,2.3,2.1,4.2.9.8,1.9,1.2,2.5,1.3s.5.1.7.1c1,0,1.3.1,1.3.8s0,1.4,0,1.4"/>
      <line class="st3" x1="6.6" y1="16.4" x2="15.5" y2="21.1"/>
      <path class="st6" d="M21.5,28.1c1.2-1,1.7-1.3,2.5-2.8.8-1.4.9-2.8.9-3.4"/>
    </g>
  </g>
  <path class="st7" d="M26.8,20.9c.3,5.8-5,10.5-10.5,10.4-6.2-.1-11-4.7-10.7-10.7.3-5.3,5.8-12.1,10.7-19.1,8.3,12.7,10.1,14.5,10.5,19.4Z"/>
</svg>